<svg width="192" height="192" viewBox="0 0 192 192" fill="none" xmlns="http://www.w3.org/2000/svg">
  <defs>
    <linearGradient id="bgGrad" x1="0" y1="0" x2="192" y2="192" gradientUnits="userSpaceOnUse">
      <stop offset="0%" stop-color="#818cf8"/>
      <stop offset="100%" stop-color="#4338ca"/>
    </linearGradient>
  </defs>
  <rect width="192" height="192" rx="40" fill="url(#bgGrad)"/>
  <circle cx="96" cy="92" r="55" fill="white" opacity="0.12"/>
  <circle cx="96" cy="92" r="51" fill="white"/>
  <line x1="96" y1="44" x2="96" y2="53" stroke="#6366f1" stroke-width="4" stroke-linecap="round"/>
  <line x1="144" y1="92" x2="135" y2="92" stroke="#6366f1" stroke-width="4" stroke-linecap="round"/>
  <line x1="96" y1="140" x2="96" y2="131" stroke="#6366f1" stroke-width="4" stroke-linecap="round"/>
  <line x1="48" y1="92" x2="57" y2="92" stroke="#6366f1" stroke-width="4" stroke-linecap="round"/>
  <line x1="96" y1="92" x2="70" y2="77" stroke="#4338ca" stroke-width="5" stroke-linecap="round"/>
  <line x1="96" y1="92" x2="129" y2="74" stroke="#4338ca" stroke-width="4" stroke-linecap="round"/>
  <circle cx="96" cy="92" r="5" fill="#4338ca"/>
  <circle cx="147" cy="148" r="21" fill="#4338ca"/>
  <circle cx="147" cy="148" r="17" fill="#fbbf24"/>
  <path d="M149,138 L141,150 L146,150 L143,160 L153,149 L148,149 Z" fill="#92400e"/>
</svg>
